<svg id="Layer_1" data-name="Layer 1" xmlns="http://www.w3.org/2000/svg" xmlns:xlink="http://www.w3.org/1999/xlink" viewBox="0 0 128 128"><defs><style>.cls-1{fill:url(#linear-gradient);}.cls-2{fill:url(#linear-gradient-2);}</style><linearGradient id="linear-gradient" x1="409.31" y1="0.66" x2="533.48" y2="-106.17" gradientTransform="matrix(0.56, 0, 0, -0.57, -232.86, 4.08)" gradientUnits="userSpaceOnUse"><stop offset="0" stop-color="#5a9fd4"/><stop offset="1" stop-color="#306998"/></linearGradient><linearGradient id="linear-gradient-2" x1="581.45" y1="-170.8" x2="537.11" y2="-108.07" gradientTransform="matrix(0.56, 0, 0, -0.57, -232.86, 4.08)" gradientUnits="userSpaceOnUse"><stop offset="0" stop-color="#ffd43b"/><stop offset="1" stop-color="#ffe873"/></linearGradient></defs><title>Artboard 1</title><path class="cls-1" d="M63.2,0A91.4,91.4,0,0,0,48.7,1.2c-13,2.3-15.3,7.1-15.3,15.9V28.7H63.9v3.9h-42C13,32.6,5.3,37.9,2.8,48.1,0,59.8-.1,67,2.8,79.2,5,88.2,10.2,94.7,19,94.7H29.5v-14a19.41,19.41,0,0,1,19.1-19H79.1A15.41,15.41,0,0,0,94.4,46.2V17.1c0-8.3-7-14.5-15.3-15.9A105.4,105.4,0,0,0,63.2,0ZM46.7,9.4a5.72,5.72,0,0,1,5.7,5.8A5.78,5.78,0,0,1,46.7,21,5.72,5.72,0,0,1,41,15.2,5.78,5.78,0,0,1,46.7,9.4Z"/><path class="cls-2" d="M98.2,32.6V46.2c0,10.5-8.9,19.4-19.1,19.4H48.7A15.6,15.6,0,0,0,33.4,81.1v29.1c0,8.3,7.2,13.1,15.3,15.5a51.07,51.07,0,0,0,30.5,0c7.7-2.2,15.3-6.7,15.3-15.5V98.5H63.9V94.6h45.8c8.9,0,12.2-6.2,15.3-15.5,3.2-9.6,3.1-18.8,0-31-2.2-8.8-6.4-15.5-15.3-15.5ZM81.1,106.3a5.72,5.72,0,0,1,5.7,5.8,5.78,5.78,0,0,1-5.7,5.8,5.72,5.72,0,0,1-5.7-5.8A5.66,5.66,0,0,1,81.1,106.3Z"/></svg>